<?xml version="1.0" encoding="UTF-8" standalone="no"?><svg xmlns="http://www.w3.org/2000/svg" xmlns:xlink="http://www.w3.org/1999/xlink" contentStyleType="text/css" height="556px" preserveAspectRatio="none" style="width:960px;height:556px;background:#FFFFFF;" version="1.1" viewBox="0 0 960 556" width="960px" zoomAndPan="magnify"><defs/><g><rect fill="none" height="26.2969" id="_title" style="stroke:none;stroke-width:1.0;" width="218" x="364" y="5"/><text fill="#000000" font-family="sans-serif" font-size="14" font-weight="bold" lengthAdjust="spacing" textLength="208" x="369" y="22.9951">Timetracker state diagram</text><g id="elem_N1"><path d="M6,43.2969 L6,83.5625 L294,83.5625 L294,53.2969 L284,43.2969 L6,43.2969 " fill="#FEFFDD" style="stroke:#181818;stroke-width:0.5;"/><path d="M284,43.2969 L284,53.2969 L294,53.2969 L284,43.2969 " fill="#FEFFDD" style="stroke:#181818;stroke-width:1.0;"/><text fill="#000000" font-family="sans-serif" font-size="13" lengthAdjust="spacing" textLength="218" x="12" y="60.3638">The timetracker is an infinite state</text><text fill="#000000" font-family="sans-serif" font-size="13" lengthAdjust="spacing" textLength="267" x="12" y="75.4966">machine, with one initial state but no end.</text></g><ellipse cx="339" cy="63.2969" fill="#222222" rx="10" ry="10" style="stroke:none;stroke-width:1.0;"/><g id="CheckedOut"><rect fill="#F1F1F1" height="50" rx="12.5" ry="12.5" style="stroke:#181818;stroke-width:0.5;" width="107" x="391.5" y="160.2969"/><line style="stroke:#181818;stroke-width:0.5;" x1="391.5" x2="498.5" y1="186.5938" y2="186.5938"/><text fill="#000000" font-family="sans-serif" font-size="14" lengthAdjust="spacing" textLength="87" x="401.5" y="178.292">CheckedOut</text></g><g id="elem_GMN1379"><path d="M384,50.7969 L384,75.9297 A0,0 0 0 0 384,75.9297 L536.84,75.9297 L466.24,160.2569 L544.84,75.9297 L718,75.9297 A0,0 0 0 0 718,75.9297 L718,60.7969 L708,50.7969 L384,50.7969 A0,0 0 0 0 384,50.7969 " fill="#FEFFDD" style="stroke:#181818;stroke-width:0.5;"/><path d="M708,50.7969 L708,60.7969 L718,60.7969 L708,50.7969 " fill="#FEFFDD" style="stroke:#181818;stroke-width:0.5;"/><text fill="#000000" font-family="sans-serif" font-size="13" lengthAdjust="spacing" textLength="313" x="390" y="67.8638">State named 'CheckedOut' means is out of office</text></g><g id="CheckedIn"><rect fill="#F1F1F1" height="50" rx="12.5" ry="12.5" style="stroke:#181818;stroke-width:0.5;" width="94" x="398" y="413.2969"/><line style="stroke:#181818;stroke-width:0.5;" x1="398" x2="492" y1="439.5938" y2="439.5938"/><text fill="#000000" font-family="sans-serif" font-size="14" lengthAdjust="spacing" textLength="74" x="408" y="431.292">CheckedIn</text></g><g id="elem_GMN1387"><path d="M297,524.2969 L297,549.4297 A0,0 0 0 0 297,549.4297 L593,549.4297 A0,0 0 0 0 593,549.4297 L593,534.2969 L583,524.2969 L449,524.2969 L445,463.6469 L441,524.2969 L297,524.2969 A0,0 0 0 0 297,524.2969 " fill="#FEFFDD" style="stroke:#181818;stroke-width:0.5;"/><path d="M583,524.2969 L583,534.2969 L593,534.2969 L583,524.2969 " fill="#FEFFDD" style="stroke:#181818;stroke-width:0.5;"/><text fill="#000000" font-family="sans-serif" font-size="13" lengthAdjust="spacing" textLength="275" x="303" y="541.3638">State named 'CheckedIn' means is in office</text></g><!--MD5=[7bf60b3d32be628f98d25de612744df4]
link *start to CheckedOut--><g id="link_*start_CheckedOut"><path d="M345.31,71.4469 C359.67,87.6969 395.43,128.1769 419.97,155.9569 " fill="none" id="*start-to-CheckedOut" style="stroke:#181818;stroke-width:1.0;"/><polygon fill="#181818" points="423.51,159.9669,420.5559,150.5715,420.2024,156.2173,414.5566,155.8637,423.51,159.9669" style="stroke:#181818;stroke-width:1.0;"/><text fill="#000000" font-family="sans-serif" font-size="13" lengthAdjust="spacing" textLength="33" x="396" y="126.3638">initial</text></g><!--MD5=[22378c22ad5970f02e0d8290e695c945]
link CheckedOut to CheckedIn--><g id="link_CheckedOut_CheckedIn"><path d="M391.33,187.8569 C312.76,191.3869 172.33,202.9069 141,240.2969 C100.18,289.0069 100.18,334.5869 141,383.2969 C172.54,420.9369 314.66,432.3569 392.92,435.8069 " fill="none" id="CheckedOut-to-CheckedIn" style="stroke:#181818;stroke-width:1.0;"/><polygon fill="#181818" points="397.98,436.0269,389.1471,431.6704,392.984,435.827,388.8273,439.664,397.98,436.0269" style="stroke:#181818;stroke-width:1.0;"/><text fill="#000000" font-family="sans-serif" font-size="13" lengthAdjust="spacing" textLength="69" x="169.5" y="276.3638">AutoCheck</text><path d="M146,285.4297 L146,355.4297 L262,355.4297 L262,295.4297 L252,285.4297 L146,285.4297 " fill="#FEFFDD" style="stroke:#181818;stroke-width:0.5;"/><path d="M252,285.4297 L252,295.4297 L262,295.4297 L252,285.4297 " fill="#FEFFDD" style="stroke:#181818;stroke-width:0.5;"/><text fill="#000000" font-family="sans-serif" font-size="13" lengthAdjust="spacing" textLength="83" x="152" y="302.4966">AutoCheck is</text><text fill="#000000" font-family="sans-serif" font-size="13" lengthAdjust="spacing" textLength="91" x="152" y="317.6294">made with the</text><text fill="#000000" font-family="sans-serif" font-size="13" lengthAdjust="spacing" textLength="79" x="152" y="332.7622">current date</text><text fill="#000000" font-family="sans-serif" font-size="13" lengthAdjust="spacing" textLength="57" x="152" y="347.895">and time</text></g><!--MD5=[8dc9bc5fe728e0e7a76f4443ec0e1f8d]
link CheckedIn to CheckedOut--><g id="link_CheckedIn_CheckedOut"><path d="M492.19,422.5869 C510.81,414.2069 530.28,401.6169 541,383.2969 C573.09,328.4369 573.09,295.1569 541,240.2969 C532.38,225.5669 518.1,214.5369 503.16,206.4269 " fill="none" id="CheckedIn-to-CheckedOut" style="stroke:#181818;stroke-width:1.0;"/><polygon fill="#181818" points="498.5,204.0069,504.6536,211.6967,502.9403,206.3055,508.3314,204.5923,498.5,204.0069" style="stroke:#181818;stroke-width:1.0;"/><text fill="#000000" font-family="sans-serif" font-size="13" lengthAdjust="spacing" textLength="69" x="593.5" y="276.3638">AutoCheck</text><path d="M570,285.4297 L570,355.4297 L686,355.4297 L686,295.4297 L676,285.4297 L570,285.4297 " fill="#FEFFDD" style="stroke:#181818;stroke-width:0.5;"/><path d="M676,285.4297 L676,295.4297 L686,295.4297 L676,285.4297 " fill="#FEFFDD" style="stroke:#181818;stroke-width:0.5;"/><text fill="#000000" font-family="sans-serif" font-size="13" lengthAdjust="spacing" textLength="83" x="576" y="302.4966">AutoCheck is</text><text fill="#000000" font-family="sans-serif" font-size="13" lengthAdjust="spacing" textLength="91" x="576" y="317.6294">made with the</text><text fill="#000000" font-family="sans-serif" font-size="13" lengthAdjust="spacing" textLength="79" x="576" y="332.7622">current date</text><text fill="#000000" font-family="sans-serif" font-size="13" lengthAdjust="spacing" textLength="57" x="576" y="347.895">and time</text></g><!--MD5=[8dc9bc5fe728e0e7a76f4443ec0e1f8d]
link CheckedIn to CheckedOut--><g id="link_CheckedIn_CheckedOut"><path d="M492.12,434.1869 C558.27,428.7169 673.47,414.8269 699,383.2969 C739,333.9069 739,289.6869 699,240.2969 C674.91,210.5469 571,196.5069 503.78,190.4169 " fill="none" id="CheckedIn-to-CheckedOut-1" style="stroke:#181818;stroke-width:1.0;"/><polygon fill="#181818" points="498.6,189.9569,507.2108,194.7375,503.5804,190.3993,507.9186,186.7689,498.6,189.9569" style="stroke:#181818;stroke-width:1.0;"/><text fill="#000000" font-family="sans-serif" font-size="13" lengthAdjust="spacing" textLength="85" x="800.5" y="253.3638">ManualCheck</text><path d="M733,262.4297 L733,377.4297 L953,377.4297 L953,272.4297 L943,262.4297 L733,262.4297 " fill="#FEFFDD" style="stroke:#181818;stroke-width:0.5;"/><path d="M943,262.4297 L943,272.4297 L953,272.4297 L943,262.4297 " fill="#FEFFDD" style="stroke:#181818;stroke-width:0.5;"/><text fill="#000000" font-family="sans-serif" font-size="13" lengthAdjust="spacing" textLength="143" x="739" y="279.4966">Manual Check enables</text><text fill="#000000" font-family="sans-serif" font-size="13" lengthAdjust="spacing" textLength="140" x="739" y="294.6294">to register manually a</text><text fill="#000000" font-family="sans-serif" font-size="13" lengthAdjust="spacing" textLength="199" x="739" y="309.7622">forgotten Autocheck operation.</text><text fill="#000000" font-family="sans-serif" font-size="13" lengthAdjust="spacing" textLength="143" x="739" y="324.895">Is made with a specific</text><text fill="#000000" font-family="sans-serif" font-size="13" lengthAdjust="spacing" textLength="156" x="739" y="340.0278">indicated date and time,</text><text fill="#000000" font-family="sans-serif" font-size="13" lengthAdjust="spacing" textLength="152" x="739" y="355.1606">but cannot be equals or</text><text fill="#000000" font-family="sans-serif" font-size="13" lengthAdjust="spacing" textLength="113" x="739" y="370.2935">after current time</text></g><!--MD5=[22378c22ad5970f02e0d8290e695c945]
link CheckedOut to CheckedIn--><g id="link_CheckedOut_CheckedIn"><path d="M391.24,191.8569 C359.9,198.1769 322.76,211.6369 303,240.2969 C266.92,292.6169 266.92,330.9769 303,383.2969 C323.11,412.4569 361.21,425.8869 392.88,432.0569 " fill="none" id="CheckedOut-to-CheckedIn-1" style="stroke:#181818;stroke-width:1.0;"/><polygon fill="#181818" points="397.91,432.9869,389.7906,427.4124,392.9939,432.0749,388.3314,435.2782,397.91,432.9869" style="stroke:#181818;stroke-width:1.0;"/><text fill="#000000" font-family="sans-serif" font-size="13" lengthAdjust="spacing" textLength="85" x="375.5" y="253.3638">ManualCheck</text><path d="M308,262.4297 L308,377.4297 L528,377.4297 L528,272.4297 L518,262.4297 L308,262.4297 " fill="#FEFFDD" style="stroke:#181818;stroke-width:0.5;"/><path d="M518,262.4297 L518,272.4297 L528,272.4297 L518,262.4297 " fill="#FEFFDD" style="stroke:#181818;stroke-width:0.5;"/><text fill="#000000" font-family="sans-serif" font-size="13" lengthAdjust="spacing" textLength="143" x="314" y="279.4966">Manual Check enables</text><text fill="#000000" font-family="sans-serif" font-size="13" lengthAdjust="spacing" textLength="140" x="314" y="294.6294">to register manually a</text><text fill="#000000" font-family="sans-serif" font-size="13" lengthAdjust="spacing" textLength="199" x="314" y="309.7622">forgotten Autocheck operation.</text><text fill="#000000" font-family="sans-serif" font-size="13" lengthAdjust="spacing" textLength="143" x="314" y="324.895">Is made with a specific</text><text fill="#000000" font-family="sans-serif" font-size="13" lengthAdjust="spacing" textLength="156" x="314" y="340.0278">indicated date and time,</text><text fill="#000000" font-family="sans-serif" font-size="13" lengthAdjust="spacing" textLength="152" x="314" y="355.1606">but cannot be equals or</text><text fill="#000000" font-family="sans-serif" font-size="13" lengthAdjust="spacing" textLength="113" x="314" y="370.2935">after current time</text></g><!--MD5=[55e24856a9bec773de080c005d666cd9]
@startuml
title "Timetracker state diagram"

note "The timetracker is an infinite state\nmachine, with one initial state but no end." as N1

[*] - -> CheckedOut : initial
note top of CheckedOut
State named 'CheckedOut' means is out of office
end note
CheckedOut - -> CheckedIn : AutoCheck
note on link
AutoCheck is
made with the 
current date 
and time
end note
CheckedIn - -> CheckedOut : AutoCheck
note on link
AutoCheck is
made with the 
current date 
and time
end note
CheckedIn - -> CheckedOut : ManualCheck
note on link
Manual Check enables
to register manually a
forgotten Autocheck operation.
Is made with a specific
indicated date and time,
but cannot be equals or
after current time
end note
CheckedOut - -> CheckedIn : ManualCheck
note on link
Manual Check enables
to register manually a
forgotten Autocheck operation.
Is made with a specific
indicated date and time,
but cannot be equals or
after current time
end note

note bottom of CheckedIn
State named 'CheckedIn' means is in office
end note
@enduml

PlantUML version 1.2022.7(Mon Aug 22 17:01:30 UTC 2022)
(GPL source distribution)
Java Runtime: OpenJDK Runtime Environment
JVM: OpenJDK 64-Bit Server VM
Default Encoding: UTF-8
Language: en
Country: null
--></g></svg>