<?xml version="1.0" encoding="UTF-8" standalone="no"?><svg xmlns="http://www.w3.org/2000/svg" xmlns:xlink="http://www.w3.org/1999/xlink" contentStyleType="text/css" height="759px" preserveAspectRatio="none" style="width:1231px;height:759px;background:#FFFFFF;" version="1.1" viewBox="0 0 1231 759" width="1231px" zoomAndPan="magnify"><defs/><g><rect fill="none" height="26.2969" id="_title" style="stroke:none;stroke-width:1.0;" width="166" x="525.5" y="5"/><text fill="#000000" font-family="sans-serif" font-size="14" font-weight="bold" lengthAdjust="spacing" textLength="156" x="530.5" y="22.9951">Data model diagram</text><!--MD5=[5344c89d8c63d3b1582c1f9962b8fdce]
cluster register--><g id="cluster_register"><path d="M8.5,43.2969 L72.5,43.2969 A3.75,3.75 0 0 1 75,45.7969 L82,65.5938 L498.5,65.5938 A2.5,2.5 0 0 1 501,68.0938 L501,436.2969 A2.5,2.5 0 0 1 498.5,438.7969 L8.5,438.7969 A2.5,2.5 0 0 1 6,436.2969 L6,45.7969 A2.5,2.5 0 0 1 8.5,43.2969 " fill="none" style="stroke:#000000;stroke-width:1.5;"/><line style="stroke:#000000;stroke-width:1.5;" x1="6" x2="82" y1="65.5938" y2="65.5938"/><text fill="#000000" font-family="sans-serif" font-size="14" font-weight="bold" lengthAdjust="spacing" textLength="63" x="10" y="58.292">register</text></g><!--MD5=[1b930b9c55a10694ee42f2859f87174c]
cluster operations--><g id="cluster_operations"><path d="M265.5,515.2969 L351.5,515.2969 A3.75,3.75 0 0 1 354,517.7969 L361,537.5938 L814.5,537.5938 A2.5,2.5 0 0 1 817,540.0938 L817,749.7969 A2.5,2.5 0 0 1 814.5,752.2969 L265.5,752.2969 A2.5,2.5 0 0 1 263,749.7969 L263,517.7969 A2.5,2.5 0 0 1 265.5,515.2969 " fill="none" style="stroke:#000000;stroke-width:1.5;"/><line style="stroke:#000000;stroke-width:1.5;" x1="263" x2="361" y1="537.5938" y2="537.5938"/><text fill="#000000" font-family="sans-serif" font-size="14" font-weight="bold" lengthAdjust="spacing" textLength="85" x="267" y="530.292">operations</text></g><!--MD5=[75ea3bd801f35bf9c6563570d027214a]
cluster state--><g id="cluster_state"><path d="M527.5,53.2969 L568.5,53.2969 A3.75,3.75 0 0 1 571,55.7969 L578,75.5938 L1221.5,75.5938 A2.5,2.5 0 0 1 1224,78.0938 L1224,488.7969 A2.5,2.5 0 0 1 1221.5,491.2969 L527.5,491.2969 A2.5,2.5 0 0 1 525,488.7969 L525,55.7969 A2.5,2.5 0 0 1 527.5,53.2969 " fill="none" style="stroke:#000000;stroke-width:1.5;"/><line style="stroke:#000000;stroke-width:1.5;" x1="525" x2="578" y1="75.5938" y2="75.5938"/><text fill="#000000" font-family="sans-serif" font-size="14" font-weight="bold" lengthAdjust="spacing" textLength="40" x="529" y="68.292">state</text></g><!--MD5=[8a8146ff89b20cc2efd6e16e3c0a6394]
class Register--><g id="elem_Register"><rect codeLine="4" fill="#F1F1F1" height="80.5938" id="Register" rx="2.5" ry="2.5" style="stroke:#181818;stroke-width:0.5;" width="192" x="293" y="316.7969"/><ellipse cx="355.75" cy="332.7969" fill="#A9DCDF" rx="11" ry="11" style="stroke:#181818;stroke-width:1.0;"/><path d="M355.8594,328.1406 L354.7031,333.2188 L357.0313,333.2188 L355.8594,328.1406 Z M354.375,325.9063 L357.3594,325.9063 L360.7188,338.2969 L358.2656,338.2969 L357.5,335.2344 L354.2188,335.2344 L353.4688,338.2969 L351.0313,338.2969 L354.375,325.9063 Z " fill="#000000"/><text fill="#000000" font-family="sans-serif" font-size="14" font-style="italic" lengthAdjust="spacing" textLength="58" x="376.25" y="337.6436">Register</text><line style="stroke:#181818;stroke-width:0.5;" x1="294" x2="484" y1="348.7969" y2="348.7969"/><ellipse cx="304" cy="362.4453" fill="none" rx="3" ry="3" style="stroke:#038048;stroke-width:1.0;"/><text fill="#000000" font-family="sans-serif" font-size="14" lengthAdjust="spacing" textLength="130" x="313" y="365.792">timestamp created</text><ellipse cx="304" cy="378.7422" fill="none" rx="3" ry="3" style="stroke:#038048;stroke-width:1.0;"/><text fill="#000000" font-family="sans-serif" font-size="14" lengthAdjust="spacing" textLength="166" x="313" y="382.0889">timestamp sinchronized</text><line style="stroke:#181818;stroke-width:0.5;" x1="294" x2="484" y1="389.3906" y2="389.3906"/></g><g id="elem_GMN1272"><path d="M269.5,78.2969 L269.5,179.0938 A0,0 0 0 0 269.5,179.0938 L375.63,179.0938 L386.89,316.4969 L383.63,179.0938 L484.5,179.0938 A0,0 0 0 0 484.5,179.0938 L484.5,88.2969 L474.5,78.2969 L269.5,78.2969 A0,0 0 0 0 269.5,78.2969 " fill="#FEFFDD" style="stroke:#181818;stroke-width:0.5;"/><path d="M474.5,78.2969 L474.5,88.2969 L484.5,88.2969 L474.5,78.2969 " fill="#FEFFDD" style="stroke:#181818;stroke-width:0.5;"/><text fill="#000000" font-family="sans-serif" font-size="13" lengthAdjust="spacing" textLength="171" x="275.5" y="95.3638">This abstract class register</text><text fill="#000000" font-family="sans-serif" font-size="13" lengthAdjust="spacing" textLength="183" x="275.5" y="110.4966">data and time a register was</text><text fill="#000000" font-family="sans-serif" font-size="13" lengthAdjust="spacing" textLength="53" x="275.5" y="125.6294">created.</text><text fill="#000000" font-family="sans-serif" font-size="13" lengthAdjust="spacing" textLength="189" x="275.5" y="140.7622">Also, if so, data and time that</text><text fill="#000000" font-family="sans-serif" font-size="13" lengthAdjust="spacing" textLength="194" x="275.5" y="155.895">register was synchronized with</text><text fill="#000000" font-family="sans-serif" font-size="13" lengthAdjust="spacing" textLength="91" x="275.5" y="171.0278">remote server</text></g><path d="M22,291.7969 L22,347.1953 A0,0 0 0 0 22,347.1953 L216,347.1953 A0,0 0 0 0 216,347.1953 L216,323.4961 L297,360.9453 L216,315.4961 L216,301.7969 L206,291.7969 L22,291.7969 A0,0 0 0 0 22,291.7969 " fill="#FEFFDD" style="stroke:#181818;stroke-width:0.5;"/><path d="M206,291.7969 L206,301.7969 L216,301.7969 L206,291.7969 " fill="#FEFFDD" style="stroke:#181818;stroke-width:0.5;"/><text fill="#000000" font-family="sans-serif" font-size="13" lengthAdjust="spacing" textLength="162" x="28" y="308.8638">This membre register the</text><text fill="#000000" font-family="sans-serif" font-size="13" lengthAdjust="spacing" textLength="173" x="28" y="323.9966">data and time that register</text><text fill="#000000" font-family="sans-serif" font-size="13" lengthAdjust="spacing" textLength="77" x="28" y="339.1294">was created</text><path d="M22,357.1953 L22,412.5938 A0,0 0 0 0 22,412.5938 L258,412.5938 A0,0 0 0 0 258,412.5938 L258,388.8945 L297,377.2422 L258,380.8945 L258,367.1953 L248,357.1953 L22,357.1953 A0,0 0 0 0 22,357.1953 " fill="#FEFFDD" style="stroke:#181818;stroke-width:0.5;"/><path d="M248,357.1953 L248,367.1953 L258,367.1953 L248,357.1953 " fill="#FEFFDD" style="stroke:#181818;stroke-width:0.5;"/><text fill="#000000" font-family="sans-serif" font-size="13" lengthAdjust="spacing" textLength="215" x="28" y="374.2622">This nullable member register the</text><text fill="#000000" font-family="sans-serif" font-size="13" lengthAdjust="spacing" textLength="201" x="28" y="389.395">data and time that register was</text><text fill="#000000" font-family="sans-serif" font-size="13" lengthAdjust="spacing" textLength="208" x="28" y="404.5278">synchronized with remote server</text><!--MD5=[ac5a23b76fcb9a730ee67cbda219249e]
class CheckOperation--><g id="elem_CheckOperation"><rect codeLine="32" fill="#F1F1F1" height="80.5938" id="CheckOperation" rx="2.5" ry="2.5" style="stroke:#181818;stroke-width:0.5;" width="221" x="278.5" y="560.2969"/><ellipse cx="328.75" cy="576.2969" fill="#ADD1B2" rx="11" ry="11" style="stroke:#181818;stroke-width:1.0;"/><path d="M331.7188,581.9375 Q331.1406,582.2344 330.5,582.375 Q329.8594,582.5313 329.1563,582.5313 Q326.6563,582.5313 325.3281,580.8906 Q324.0156,579.2344 324.0156,576.1094 Q324.0156,572.9844 325.3281,571.3281 Q326.6563,569.6719 329.1563,569.6719 Q329.8594,569.6719 330.5,569.8281 Q331.1563,569.9844 331.7188,570.2813 L331.7188,573 Q331.0938,572.4219 330.5,572.1563 Q329.9063,571.875 329.2813,571.875 Q327.9375,571.875 327.25,572.9531 Q326.5625,574.0156 326.5625,576.1094 Q326.5625,578.2031 327.25,579.2813 Q327.9375,580.3438 329.2813,580.3438 Q329.9063,580.3438 330.5,580.0781 Q331.0938,579.7969 331.7188,579.2188 L331.7188,581.9375 Z " fill="#000000"/><text fill="#000000" font-family="sans-serif" font-size="14" lengthAdjust="spacing" textLength="112" x="349.25" y="581.1436">CheckOperation</text><line style="stroke:#181818;stroke-width:0.5;" x1="279.5" x2="498.5" y1="592.2969" y2="592.2969"/><ellipse cx="289.5" cy="605.9453" fill="none" rx="3" ry="3" style="stroke:#038048;stroke-width:1.0;"/><text fill="#000000" font-family="sans-serif" font-size="14" lengthAdjust="spacing" textLength="195" x="298.5" y="609.292">boolean isCheckInOperation</text><ellipse cx="289.5" cy="622.2422" fill="none" rx="3" ry="3" style="stroke:#038048;stroke-width:1.0;"/><text fill="#000000" font-family="sans-serif" font-size="14" lengthAdjust="spacing" textLength="158" x="298.5" y="625.5889">timestamp tsOperation</text><line style="stroke:#181818;stroke-width:0.5;" x1="279.5" x2="498.5" y1="632.8906" y2="632.8906"/></g><g id="elem_GMN1280"><path d="M279.5,711.2969 L279.5,736.4297 A0,0 0 0 0 279.5,736.4297 L582.5,736.4297 A0,0 0 0 0 582.5,736.4297 L582.5,721.2969 L572.5,711.2969 L430.92,711.2969 L402.75,641.4169 L422.92,711.2969 L279.5,711.2969 A0,0 0 0 0 279.5,711.2969 " fill="#FEFFDD" style="stroke:#181818;stroke-width:0.5;"/><path d="M572.5,711.2969 L572.5,721.2969 L582.5,721.2969 L572.5,711.2969 " fill="#FEFFDD" style="stroke:#181818;stroke-width:0.5;"/><text fill="#000000" font-family="sans-serif" font-size="13" lengthAdjust="spacing" textLength="282" x="285.5" y="728.3638">A CheckOperation is a check-in or check-out</text></g><path d="M535,550.2969 L535,566.4297 L493.5,604.4453 L535,574.4297 L535,590.5625 A0,0 0 0 0 535,590.5625 L801,590.5625 A0,0 0 0 0 801,590.5625 L801,560.2969 L791,550.2969 L535,550.2969 A0,0 0 0 0 535,550.2969 " fill="#FEFFDD" style="stroke:#181818;stroke-width:0.5;"/><path d="M791,550.2969 L791,560.2969 L801,560.2969 L791,550.2969 " fill="#FEFFDD" style="stroke:#181818;stroke-width:0.5;"/><text fill="#000000" font-family="sans-serif" font-size="13" lengthAdjust="spacing" textLength="188" x="541" y="567.3638">Indicates if this operation was</text><text fill="#000000" font-family="sans-serif" font-size="13" lengthAdjust="spacing" textLength="245" x="541" y="582.4966">a check-in (true) or a check-out (false)</text><path d="M535,600.5625 L535,616.6953 L456.5,620.7422 L535,624.6953 L535,640.8281 A0,0 0 0 0 535,640.8281 L800,640.8281 A0,0 0 0 0 800,640.8281 L800,610.5625 L790,600.5625 L535,600.5625 A0,0 0 0 0 535,600.5625 " fill="#FEFFDD" style="stroke:#181818;stroke-width:0.5;"/><path d="M790,600.5625 L790,610.5625 L800,610.5625 L790,600.5625 " fill="#FEFFDD" style="stroke:#181818;stroke-width:0.5;"/><text fill="#000000" font-family="sans-serif" font-size="13" lengthAdjust="spacing" textLength="244" x="541" y="617.6294">Indicates the data and time this check</text><text fill="#000000" font-family="sans-serif" font-size="13" lengthAdjust="spacing" textLength="125" x="541" y="632.7622">operation was done</text><!--MD5=[00204ee27babbc8f33ef9ea91e215057]
class CurrentState--><g id="elem_CurrentState"><rect codeLine="53" fill="#F1F1F1" height="137.75" id="CurrentState" rx="2.5" ry="2.5" style="stroke:#181818;stroke-width:0.5;" width="240" x="541" y="288.2969"/><ellipse cx="612.75" cy="308.4297" fill="#ADD1B2" rx="11" ry="11" style="stroke:#181818;stroke-width:1.0;"/><path d="M615.7188,314.0703 Q615.1406,314.3672 614.5,314.5078 Q613.8594,314.6641 613.1563,314.6641 Q610.6563,314.6641 609.3281,313.0234 Q608.0156,311.3672 608.0156,308.2422 Q608.0156,305.1172 609.3281,303.4609 Q610.6563,301.8047 613.1563,301.8047 Q613.8594,301.8047 614.5,301.9609 Q615.1563,302.1172 615.7188,302.4141 L615.7188,305.1328 Q615.0938,304.5547 614.5,304.2891 Q613.9063,304.0078 613.2813,304.0078 Q611.9375,304.0078 611.25,305.0859 Q610.5625,306.1484 610.5625,308.2422 Q610.5625,310.3359 611.25,311.4141 Q611.9375,312.4766 613.2813,312.4766 Q613.9063,312.4766 614.5,312.2109 Q615.0938,311.9297 615.7188,311.3516 L615.7188,314.0703 Z " fill="#000000"/><text fill="#000000" font-family="sans-serif" font-size="12" font-style="italic" lengthAdjust="spacing" textLength="73" x="640.75" y="304.4355">«Singleton»</text><text fill="#000000" font-family="sans-serif" font-size="14" lengthAdjust="spacing" textLength="88" x="633.25" y="320.2607">CurrentState</text><line style="stroke:#181818;stroke-width:0.5;" x1="542" x2="780" y1="328.5625" y2="328.5625"/><ellipse cx="552" cy="342.2109" fill="none" rx="3" ry="3" style="stroke:#038048;stroke-width:1.0;"/><text fill="#000000" font-family="sans-serif" font-size="14" lengthAdjust="spacing" textLength="164" x="561" y="345.5576">timestamp lastChanged</text><ellipse cx="552" cy="358.5078" fill="none" rx="3" ry="3" style="stroke:#038048;stroke-width:1.0;"/><text fill="#000000" font-family="sans-serif" font-size="14" lengthAdjust="spacing" textLength="214" x="561" y="361.8545">CheckState currentCheckState</text><ellipse cx="552" cy="374.8047" fill="none" rx="3" ry="3" style="stroke:#038048;stroke-width:1.0;"/><text fill="#000000" font-family="sans-serif" font-size="14" lengthAdjust="spacing" textLength="213" x="561" y="378.1514">timestamp lastCheckOperation</text><ellipse cx="552" cy="391.1016" fill="none" rx="3" ry="3" style="stroke:#038048;stroke-width:1.0;"/><text fill="#000000" font-family="sans-serif" font-size="14" lengthAdjust="spacing" textLength="211" x="561" y="394.4482">timestamp lastSynchronization</text><ellipse cx="552" cy="407.3984" fill="none" rx="3" ry="3" style="stroke:#038048;stroke-width:1.0;"/><text fill="#000000" font-family="sans-serif" font-size="14" lengthAdjust="spacing" textLength="213" x="561" y="410.7451">long pendingSynchroRegisters</text><line style="stroke:#181818;stroke-width:0.5;" x1="542" x2="780" y1="418.0469" y2="418.0469"/></g><!--MD5=[fdc384329cd6f304b7fa45894a9ddc26]
class CheckState--><g id="elem_CheckState"><rect codeLine="60" fill="#F1F1F1" height="80.5938" id="CheckState" rx="2.5" ry="2.5" style="stroke:#181818;stroke-width:0.5;" width="112" x="1033" y="88.2969"/><ellipse cx="1048" cy="104.2969" fill="#EB937F" rx="11" ry="11" style="stroke:#181818;stroke-width:1.0;"/><path d="M1052.1094,110.2969 L1044.3906,110.2969 L1044.3906,97.9063 L1052.1094,97.9063 L1052.1094,100.0625 L1046.8438,100.0625 L1046.8438,102.7344 L1051.6094,102.7344 L1051.6094,104.8906 L1046.8438,104.8906 L1046.8438,108.1406 L1052.1094,108.1406 L1052.1094,110.2969 Z " fill="#000000"/><text fill="#000000" font-family="sans-serif" font-size="14" lengthAdjust="spacing" textLength="80" x="1062" y="109.1436">CheckState</text><line style="stroke:#181818;stroke-width:0.5;" x1="1034" x2="1144" y1="120.2969" y2="120.2969"/><text fill="#000000" font-family="sans-serif" font-size="14" lengthAdjust="spacing" textLength="98" x="1039" y="137.292">CHECKEDOUT</text><text fill="#000000" font-family="sans-serif" font-size="14" lengthAdjust="spacing" textLength="81" x="1039" y="153.5889">CHECKEDIN</text><line style="stroke:#181818;stroke-width:0.5;" x1="1034" x2="1144" y1="160.8906" y2="160.8906"/></g><g id="elem_GMN1288"><path d="M541.5,93.2969 L541.5,163.8281 A0,0 0 0 0 541.5,163.8281 L722.14,163.8281 L684.2,288.0369 L730.14,163.8281 L934.5,163.8281 A0,0 0 0 0 934.5,163.8281 L934.5,103.2969 L924.5,93.2969 L541.5,93.2969 A0,0 0 0 0 541.5,93.2969 " fill="#FEFFDD" style="stroke:#181818;stroke-width:0.5;"/><path d="M924.5,93.2969 L924.5,103.2969 L934.5,103.2969 L924.5,93.2969 " fill="#FEFFDD" style="stroke:#181818;stroke-width:0.5;"/><text fill="#000000" font-family="sans-serif" font-size="13" lengthAdjust="spacing" textLength="279" x="547.5" y="110.3638">This singleton class holds information about</text><text fill="#000000" font-family="sans-serif" font-size="13" lengthAdjust="spacing" textLength="372" x="547.5" y="125.4966">the current checked state, when was changed by last time</text><text fill="#000000" font-family="sans-serif" font-size="13" lengthAdjust="spacing" textLength="353" x="547.5" y="140.6294">when was made the last check operation and when was</text><text fill="#000000" font-family="sans-serif" font-size="13" lengthAdjust="spacing" textLength="258" x="547.5" y="155.7622">made the last syncrhonization operation</text></g><path d="M816.5,239.2969 L816.5,255.4297 L725,340.7109 L816.5,263.4297 L816.5,279.5625 A0,0 0 0 0 816.5,279.5625 L1207.5,279.5625 A0,0 0 0 0 1207.5,279.5625 L1207.5,249.2969 L1197.5,239.2969 L816.5,239.2969 A0,0 0 0 0 816.5,239.2969 " fill="#FEFFDD" style="stroke:#181818;stroke-width:0.5;"/><path d="M1197.5,239.2969 L1197.5,249.2969 L1207.5,249.2969 L1197.5,239.2969 " fill="#FEFFDD" style="stroke:#181818;stroke-width:0.5;"/><text fill="#000000" font-family="sans-serif" font-size="13" lengthAdjust="spacing" textLength="370" x="822.5" y="256.3638">This member holds the last time any item of CurrentState</text><text fill="#000000" font-family="sans-serif" font-size="13" lengthAdjust="spacing" textLength="83" x="822.5" y="271.4966">was changed</text><path d="M816.5,289.5625 L816.5,313.2617 L775,357.0078 L816.5,321.2617 L816.5,344.9609 A0,0 0 0 0 816.5,344.9609 L1124.5,344.9609 A0,0 0 0 0 1124.5,344.9609 L1124.5,299.5625 L1114.5,289.5625 L816.5,289.5625 A0,0 0 0 0 816.5,289.5625 " fill="#FEFFDD" style="stroke:#181818;stroke-width:0.5;"/><path d="M1114.5,289.5625 L1114.5,299.5625 L1124.5,299.5625 L1114.5,289.5625 " fill="#FEFFDD" style="stroke:#181818;stroke-width:0.5;"/><text fill="#000000" font-family="sans-serif" font-size="13" lengthAdjust="spacing" textLength="279" x="822.5" y="306.6294">This member holds the current check state.</text><text fill="#000000" font-family="sans-serif" font-size="13" lengthAdjust="spacing" textLength="287" x="822.5" y="321.7622">Is changed on every check operation in order</text><text fill="#000000" font-family="sans-serif" font-size="13" lengthAdjust="spacing" textLength="169" x="822.5" y="336.895">to reflect the current state</text><path d="M816.5,354.9609 L816.5,363.5273 L774,373.3047 L816.5,371.5273 L816.5,380.0938 A0,0 0 0 0 816.5,380.0938 L1099.5,380.0938 A0,0 0 0 0 1099.5,380.0938 L1099.5,364.9609 L1089.5,354.9609 L816.5,354.9609 A0,0 0 0 0 816.5,354.9609 " fill="#FEFFDD" style="stroke:#181818;stroke-width:0.5;"/><path d="M1089.5,354.9609 L1089.5,364.9609 L1099.5,364.9609 L1089.5,354.9609 " fill="#FEFFDD" style="stroke:#181818;stroke-width:0.5;"/><text fill="#000000" font-family="sans-serif" font-size="13" lengthAdjust="spacing" textLength="262" x="822.5" y="372.0278">When was made the last check operation</text><path d="M816.5,390.0938 L816.5,406.2266 L772,389.6016 L816.5,414.2266 L816.5,430.3594 A0,0 0 0 0 816.5,430.3594 L1184.5,430.3594 A0,0 0 0 0 1184.5,430.3594 L1184.5,400.0938 L1174.5,390.0938 L816.5,390.0938 A0,0 0 0 0 816.5,390.0938 " fill="#FEFFDD" style="stroke:#181818;stroke-width:0.5;"/><path d="M1174.5,390.0938 L1174.5,400.0938 L1184.5,400.0938 L1174.5,390.0938 " fill="#FEFFDD" style="stroke:#181818;stroke-width:0.5;"/><text fill="#000000" font-family="sans-serif" font-size="13" lengthAdjust="spacing" textLength="347" x="822.5" y="407.1606">When was made (if there was) the last syncrhonization</text><text fill="#000000" font-family="sans-serif" font-size="13" lengthAdjust="spacing" textLength="61" x="822.5" y="422.2935">operation</text><path d="M816.5,440.3594 L816.5,448.9258 L774,405.8984 L816.5,456.9258 L816.5,465.4922 A0,0 0 0 0 816.5,465.4922 L1170.5,465.4922 A0,0 0 0 0 1170.5,465.4922 L1170.5,450.3594 L1160.5,440.3594 L816.5,440.3594 A0,0 0 0 0 816.5,440.3594 " fill="#FEFFDD" style="stroke:#181818;stroke-width:0.5;"/><path d="M1160.5,440.3594 L1160.5,450.3594 L1170.5,450.3594 L1160.5,440.3594 " fill="#FEFFDD" style="stroke:#181818;stroke-width:0.5;"/><text fill="#000000" font-family="sans-serif" font-size="13" lengthAdjust="spacing" textLength="333" x="822.5" y="457.4263">The number of pending registers to be synchronized</text><!--MD5=[98d2687b1a581cba78788516f3e63cb5]
reverse link Register to CheckOperation--><g id="link_Register_CheckOperation"><path d="M389,418.0069 C389,462.3369 389,521.5469 389,560.1669 " fill="none" id="Register-backto-CheckOperation" style="stroke:#181818;stroke-width:1.0;"/><polygon fill="none" points="382,417.9069,389,397.9069,396,417.9069,382,417.9069" style="stroke:#181818;stroke-width:1.0;"/></g><!--MD5=[45ba77614ffc2ca2d279fd0eda8f1c6a]
@startuml
title "Data model diagram"

package register {
abstract class Register {
    +timestamp created
    +timestamp sinchronized
} 

note top of Register
  This abstract class register
  data and time a register was
  created.
  Also, if so, data and time that
  register was synchronized with
  remote server
end note

note left of Register::created
  This membre register the 
  data and time that register
  was created
end note

note left of Register::sinchronized
  This nullable member register the
  data and time that register was
  synchronized with remote server
end note
}

package operations {
class CheckOperation extends Register {
    +boolean isCheckInOperation
    +timestamp tsOperation
}

note bottom of CheckOperation
A CheckOperation is a check-in or check-out
end note

note right of CheckOperation::isCheckInOperation
  Indicates if this operation was
  a check-in (true) or a check-out (false)
end note

note right of CheckOperation::tsOperation
  Indicates the data and time this check
  operation was done
end note
}

package state {
    class CurrentState <<Singleton>> {
        +timestamp lastChanged
        +CheckState currentCheckState
        +timestamp lastCheckOperation
        +timestamp lastSynchronization
        +long pendingSynchroRegisters
    }
    enum CheckState {
        CHECKEDOUT
        CHECKEDIN
    }
    
    note top of CurrentState
       This singleton class holds information about
       the current checked state, when was changed by last time
       when was made the last check operation and when was
       made the last syncrhonization operation
    end note

    note right of CurrentState::lastChanged
       This member holds the last time any item of CurrentState
       was changed
    end note

    note right of CurrentState::currentCheckState
       This member holds the current check state.
       Is changed on every check operation in order
       to reflect the current state
    end note

    note right of CurrentState::lastCheckOperation
       When was made the last check operation
    end note

    note right of CurrentState::lastSynchronization
       When was made (if there was) the last syncrhonization
       operation
    end note

    note right of CurrentState::pendingSynchroRegisters
       The number of pending registers to be synchronized
    end note
}
@enduml

PlantUML version 1.2022.7(Mon Aug 22 17:01:30 UTC 2022)
(GPL source distribution)
Java Runtime: OpenJDK Runtime Environment
JVM: OpenJDK 64-Bit Server VM
Default Encoding: UTF-8
Language: en
Country: null
--></g></svg>